<?xml version="1.0" encoding="UTF-8" standalone="no"?>
<!-- Created with Inkscape (http://www.inkscape.org/) -->

<svg
   xmlns:dc="http://purl.org/dc/elements/1.1/"
   xmlns:cc="http://creativecommons.org/ns#"
   xmlns:rdf="http://www.w3.org/1999/02/22-rdf-syntax-ns#"
   xmlns:svg="http://www.w3.org/2000/svg"
   xmlns="http://www.w3.org/2000/svg"
   xmlns:sodipodi="http://sodipodi.sourceforge.net/DTD/sodipodi-0.dtd"
   xmlns:inkscape="http://www.inkscape.org/namespaces/inkscape"
   width="295.89651mm"
   height="130.73727mm"
   viewBox="0 0 295.89651 130.73728"
   version="1.1"
   id="svg8"
   inkscape:version="0.92.5 (2060ec1f9f, 2020-04-08)"
   sodipodi:docname="leakage_pp.svg">
  <defs
     id="defs2">
    <marker
       inkscape:isstock="true"
       style="overflow:visible"
       id="marker7031"
       refX="0"
       refY="0"
       orient="auto"
       inkscape:stockid="Arrow1Mend">
      <path
         transform="matrix(-0.4,0,0,-0.4,-4,0)"
         style="fill:#000000;fill-opacity:1;fill-rule:evenodd;stroke:#000000;stroke-width:1.00000003pt;stroke-opacity:1"
         d="M 0,0 5,-5 -12.5,0 5,5 Z"
         id="path7029"
         inkscape:connector-curvature="0" />
    </marker>
    <marker
       inkscape:stockid="Arrow2Send"
       orient="auto"
       refY="0"
       refX="0"
       id="Arrow2Send"
       style="overflow:visible"
       inkscape:isstock="true">
      <path
         id="path2265"
         style="fill:#000000;fill-opacity:1;fill-rule:evenodd;stroke:#000000;stroke-width:0.625;stroke-linejoin:round;stroke-opacity:1"
         d="M 8.7185878,4.0337352 -2.2072895,0.01601326 8.7185884,-4.0017078 c -1.7454984,2.3720609 -1.7354408,5.6174519 -6e-7,8.035443 z"
         transform="matrix(-0.3,0,0,-0.3,0.69,0)"
         inkscape:connector-curvature="0" />
    </marker>
    <marker
       inkscape:stockid="Arrow2Mend"
       orient="auto"
       refY="0"
       refX="0"
       id="Arrow2Mend"
       style="overflow:visible"
       inkscape:isstock="true">
      <path
         id="path2259"
         style="fill:#000000;fill-opacity:1;fill-rule:evenodd;stroke:#000000;stroke-width:0.625;stroke-linejoin:round;stroke-opacity:1"
         d="M 8.7185878,4.0337352 -2.2072895,0.01601326 8.7185884,-4.0017078 c -1.7454984,2.3720609 -1.7354408,5.6174519 -6e-7,8.035443 z"
         transform="scale(-0.6)"
         inkscape:connector-curvature="0" />
    </marker>
    <marker
       inkscape:stockid="Arrow1Lend"
       orient="auto"
       refY="0"
       refX="0"
       id="Arrow1Lend"
       style="overflow:visible"
       inkscape:isstock="true">
      <path
         id="path2235"
         d="M 0,0 5,-5 -12.5,0 5,5 Z"
         style="fill:#000000;fill-opacity:1;fill-rule:evenodd;stroke:#000000;stroke-width:1.00000003pt;stroke-opacity:1"
         transform="matrix(-0.8,0,0,-0.8,-10,0)"
         inkscape:connector-curvature="0" />
    </marker>
    <marker
       inkscape:stockid="Arrow2Send"
       orient="auto"
       refY="0"
       refX="0"
       id="Arrow2Send-0"
       style="overflow:visible"
       inkscape:isstock="true">
      <path
         inkscape:connector-curvature="0"
         id="path2265-7"
         style="fill:#000000;fill-opacity:1;fill-rule:evenodd;stroke:#000000;stroke-width:0.625;stroke-linejoin:round;stroke-opacity:1"
         d="M 8.7185878,4.0337352 -2.2072895,0.01601326 8.7185884,-4.0017078 c -1.7454984,2.3720609 -1.7354408,5.6174519 -6e-7,8.035443 z"
         transform="matrix(-0.3,0,0,-0.3,0.69,0)" />
    </marker>
  </defs>
  <sodipodi:namedview
     id="base"
     pagecolor="#ffffff"
     bordercolor="#666666"
     borderopacity="1.0"
     inkscape:pageopacity="0.0"
     inkscape:pageshadow="2"
     inkscape:zoom="0.7"
     inkscape:cx="644.12917"
     inkscape:cy="402.51922"
     inkscape:document-units="mm"
     inkscape:current-layer="layer1"
     showgrid="true"
     fit-margin-top="1"
     fit-margin-left="1"
     fit-margin-bottom="1"
     fit-margin-right="1"
     inkscape:window-width="1920"
     inkscape:window-height="1031"
     inkscape:window-x="0"
     inkscape:window-y="25"
     inkscape:window-maximized="1">
    <inkscape:grid
       type="xygrid"
       id="grid815"
       originx="7.2976591"
       originy="-178.41667" />
  </sodipodi:namedview>
  <metadata
     id="metadata5">
    <rdf:RDF>
      <cc:Work
         rdf:about="">
        <dc:format>image/svg+xml</dc:format>
        <dc:type
           rdf:resource="http://purl.org/dc/dcmitype/StillImage" />
        <dc:title></dc:title>
      </cc:Work>
    </rdf:RDF>
  </metadata>
  <g
     inkscape:label="Layer 1"
     inkscape:groupmode="layer"
     id="layer1"
     transform="translate(7.2976577,12.153924)">
    <text
       xml:space="preserve"
       style="font-style:normal;font-weight:normal;font-size:10.58333302px;line-height:1.25;font-family:sans-serif;letter-spacing:0px;word-spacing:0px;fill:#000000;fill-opacity:1;stroke:none;stroke-width:0.26458332"
       x="70.768295"
       y="-3.1130717"
       id="text1136"><tspan
         sodipodi:role="line"
         id="tspan1134"
         x="70.768295"
         y="-3.1130717"
         style="stroke-width:0.26458332">spectral mean subtraction</tspan></text>
    <text
       xml:space="preserve"
       style="font-style:normal;font-weight:normal;font-size:10.58333302px;line-height:1.25;font-family:sans-serif;letter-spacing:0px;word-spacing:0px;fill:#000000;fill-opacity:1;stroke:none;stroke-width:0.26458332"
       x="-41.780449"
       y="1.7431949"
       id="text1306"
       transform="rotate(-90)"><tspan
         sodipodi:role="line"
         id="tspan1304"
         x="-41.780449"
         y="1.7431949"
         style="stroke-width:0.26458332">train</tspan></text>
    <text
       xml:space="preserve"
       style="font-style:normal;font-weight:normal;font-size:10.58333302px;line-height:1.25;font-family:sans-serif;letter-spacing:0px;word-spacing:0px;fill:#000000;fill-opacity:1;stroke:none;stroke-width:0.26458332"
       x="-84.454842"
       y="1.7431949"
       id="text1310"
       transform="rotate(-90)"><tspan
         sodipodi:role="line"
         id="tspan1308"
         x="-84.454842"
         y="1.7431949"
         style="stroke-width:0.26458332">valid</tspan></text>
    <text
       xml:space="preserve"
       style="font-style:normal;font-weight:normal;font-size:10.58333302px;line-height:1.25;font-family:sans-serif;letter-spacing:0px;word-spacing:0px;fill:#000000;fill-opacity:1;stroke:none;stroke-width:0.26458332"
       x="-114.03185"
       y="1.7431949"
       id="text1314"
       transform="rotate(-90)"><tspan
         sodipodi:role="line"
         id="tspan1312"
         x="-114.03185"
         y="1.7431949"
         style="stroke-width:0.26458332">test</tspan></text>
    <rect
       style="opacity:1;fill:#fcaf3e;stroke:#f57900;stroke-width:1;stroke-linecap:round;stroke-miterlimit:4;stroke-dasharray:none;stroke-dashoffset:0;stroke-opacity:1"
       id="rect821-7"
       width="15.874996"
       height="15.874999"
       x="26.458334"
       y="64.166672"
       ry="0" />
    <rect
       style="opacity:1;fill:#fce94f;stroke:#edd400;stroke-width:1;stroke-linecap:round;stroke-miterlimit:4;stroke-dasharray:none;stroke-dashoffset:0;stroke-opacity:1"
       id="rect817"
       width="52.916664"
       height="15.875"
       x="10.583333"
       y="11.25"
       ry="0" />
    <rect
       style="opacity:1;fill:#fce94f;stroke:#edd400;stroke-width:1;stroke-linecap:round;stroke-miterlimit:4;stroke-dasharray:none;stroke-dashoffset:0;stroke-opacity:1"
       id="rect819"
       width="31.750002"
       height="15.875009"
       x="10.583333"
       y="32.416664"
       ry="0" />
    <rect
       style="opacity:1;fill:#fcaf3e;stroke:#f57900;stroke-width:1;stroke-linecap:round;stroke-miterlimit:4;stroke-dasharray:none;stroke-dashoffset:0;stroke-opacity:1"
       id="rect821"
       width="10.583333"
       height="15.874993"
       x="10.583335"
       y="64.166679"
       ry="0" />
    <rect
       style="opacity:1;fill:#e9b96e;stroke:#c17d11;stroke-width:1;stroke-linecap:round;stroke-miterlimit:4;stroke-dasharray:none;stroke-dashoffset:0;stroke-opacity:1"
       id="rect823"
       width="26.458332"
       height="15.875"
       x="10.583335"
       y="95.916679"
       ry="0" />
    <rect
       style="opacity:1;fill:none;stroke:#000000;stroke-width:1;stroke-linecap:round;stroke-miterlimit:4;stroke-dasharray:none;stroke-dashoffset:0;stroke-opacity:1"
       id="rect1180-6"
       width="63.5"
       height="26.458332"
       x="5.2916679"
       y="58.875008" />
    <rect
       style="opacity:1;fill:none;stroke:#000000;stroke-width:1;stroke-linecap:round;stroke-miterlimit:4;stroke-dasharray:none;stroke-dashoffset:0;stroke-opacity:1"
       id="rect1180-0"
       width="63.5"
       height="26.458324"
       x="5.2916679"
       y="90.625015" />
    <rect
       style="opacity:1;fill:#e9b96e;stroke:#c17d11;stroke-width:1;stroke-linecap:round;stroke-miterlimit:4;stroke-dasharray:none;stroke-dashoffset:0;stroke-opacity:1"
       id="rect823-97"
       width="21.166666"
       height="15.875001"
       x="42.333336"
       y="95.916672"
       ry="0" />
    <rect
       style="opacity:1;fill:#fcaf3e;stroke:#f57900;stroke-width:1;stroke-linecap:round;stroke-miterlimit:4;stroke-dasharray:none;stroke-dashoffset:0;stroke-opacity:1"
       id="rect821-6"
       width="15.875001"
       height="15.874993"
       x="47.625"
       y="64.166679"
       ry="0" />
    <rect
       style="opacity:1;fill:#e9b96e;stroke:#c17d11;stroke-width:1;stroke-linecap:round;stroke-miterlimit:4;stroke-dasharray:none;stroke-dashoffset:0;stroke-opacity:1"
       id="rect821-7-5"
       width="15.874996"
       height="15.874999"
       x="232.83333"
       y="64.166672"
       ry="0" />
    <rect
       style="opacity:1;fill:#e9b96e;stroke:#c17d11;stroke-width:1;stroke-linecap:round;stroke-miterlimit:4;stroke-dasharray:none;stroke-dashoffset:0;stroke-opacity:1"
       id="rect817-69"
       width="52.916664"
       height="15.875"
       x="216.95833"
       y="11.250003"
       ry="0" />
    <rect
       style="opacity:1;fill:#e9b96e;stroke:#c17d11;stroke-width:1;stroke-linecap:round;stroke-miterlimit:4;stroke-dasharray:none;stroke-dashoffset:0;stroke-opacity:1"
       id="rect819-37"
       width="31.750002"
       height="15.875009"
       x="216.95833"
       y="32.416668"
       ry="0" />
    <rect
       style="opacity:1;fill:#e9b96e;stroke:#c17d11;stroke-width:1;stroke-linecap:round;stroke-miterlimit:4;stroke-dasharray:none;stroke-dashoffset:0;stroke-opacity:1"
       id="rect821-4"
       width="10.583333"
       height="15.874993"
       x="216.95833"
       y="64.166679"
       ry="0" />
    <rect
       style="opacity:1;fill:#e9b96e;stroke:#c17d11;stroke-width:1;stroke-linecap:round;stroke-miterlimit:4;stroke-dasharray:none;stroke-dashoffset:0;stroke-opacity:1"
       id="rect823-5"
       width="26.458332"
       height="15.875"
       x="216.95833"
       y="95.916679"
       ry="0" />
    <rect
       style="opacity:1;fill:none;stroke:#000000;stroke-width:1;stroke-linecap:round;stroke-miterlimit:4;stroke-dasharray:none;stroke-dashoffset:0;stroke-opacity:1"
       id="rect1180-6-54"
       width="63.5"
       height="26.458332"
       x="211.66667"
       y="58.875011" />
    <rect
       style="opacity:1;fill:none;stroke:#000000;stroke-width:1;stroke-linecap:round;stroke-miterlimit:4;stroke-dasharray:none;stroke-dashoffset:0;stroke-opacity:1"
       id="rect1180-0-7"
       width="63.5"
       height="26.458324"
       x="211.66667"
       y="90.625015" />
    <rect
       style="opacity:1;fill:#e9b96e;stroke:#c17d11;stroke-width:1;stroke-linecap:round;stroke-miterlimit:4;stroke-dasharray:none;stroke-dashoffset:0;stroke-opacity:1"
       id="rect823-97-44"
       width="21.166666"
       height="15.875001"
       x="248.70833"
       y="95.916672"
       ry="0" />
    <rect
       style="opacity:1;fill:#e9b96e;stroke:#c17d11;stroke-width:1;stroke-linecap:round;stroke-miterlimit:4;stroke-dasharray:none;stroke-dashoffset:0;stroke-opacity:1"
       id="rect821-6-3"
       width="15.875001"
       height="15.874993"
       x="253.99998"
       y="64.166679"
       ry="0" />
    <path
       style="opacity:1;fill:#73d216;stroke:#4e9a06;stroke-width:0.67593521;stroke-linecap:round;stroke-miterlimit:4;stroke-dasharray:none;stroke-dashoffset:0;stroke-opacity:1"
       id="path1069"
       d="m 14.143223,95.844292 c 1.01197,1.445508 2.077859,2.853513 3.164965,4.243358 0.979336,1.2779 2.012205,2.51287 3.091992,3.7067 0.602582,0.69751 1.18386,1.41271 1.763055,2.12973 0.06765,0.0937 0.308936,0.43933 0.405683,0.53309 0.04252,0.0412 0.100667,0.12682 0.150287,0.0946 0.06415,-0.0417 0.118133,-0.25723 0.04914,-0.22422 -1.0448,0.49961 -1.977151,1.22902 -3.05201,1.66017 -0.184017,0.0738 0.169322,-0.35856 0.253989,-0.53784 0.08922,-0.26222 0.181773,-0.52332 0.267637,-0.78665 0.314499,-0.96449 0.360226,-1.25474 0.790641,-2.26159 0.87898,-2.05622 2.045015,-3.93941 3.219514,-5.834516 3.210739,-5.017812 7.23175,-9.45747 11.549583,-13.541626 1.002405,-0.948154 2.0434,-1.854665 3.065096,-2.781994 1.124635,-0.934365 2.234642,-1.886623 3.373904,-2.803096 3.295133,-2.650762 6.593893,-4.948022 10.180737,-7.181704 2.868149,-1.786118 5.278885,-3.10772 8.325839,-4.84797 2.765575,-1.509316 1.459641,-0.800185 3.916821,-2.129189 0,0 -2.701909,2.173618 -2.701909,2.173618 v 0 c -2.34905,1.243518 -1.098543,0.57683 -3.749852,2.003216 0.949324,-0.947878 0.339387,-0.3189 -2.926123,1.686336 -3.571487,2.193113 -6.992348,4.551099 -10.263712,7.173322 -1.129366,0.905267 -2.226267,1.850319 -3.339394,2.775478 -1.026698,0.924707 -2.074371,1.826641 -3.080088,2.774126 -4.25337,4.00712 -8.157997,8.414272 -11.302009,13.352168 -0.448185,0.734525 -0.923631,1.45309 -1.344543,2.203574 -1.142331,2.036787 -2.070836,4.186127 -2.609678,6.461277 -0.05874,0.1936 -0.01663,0.45631 -0.176121,0.58081 -1.108838,0.86561 -2.468969,2.84501 -3.661319,2.0986 -0.256321,-0.16046 -0.374752,-0.49616 -0.568103,-0.7124 -0.565271,-0.71745 -1.134638,-1.43095 -1.720492,-2.1317 -1.063516,-1.21296 -2.027663,-2.50701 -3.021504,-3.7767 -1.088405,-1.39638 -2.178283,-2.791147 -3.287114,-4.17137 0,0 3.235121,-1.927565 3.235121,-1.927565 z"
       inkscape:connector-curvature="0" />
    <g
       id="g1223"
       transform="matrix(0.70016972,0,0,0.70016972,-20.086245,2.2087882)">
      <path
         inkscape:connector-curvature="0"
         d="m 325.18648,139.13586 c 1.01563,-2.60837 2.67063,-4.8879 4.33102,-7.11458 3.12023,-4.05173 5.87099,-8.3668 8.68186,-12.63319 5.50505,-8.35562 1.20315,-1.70984 6.84566,-10.50448 5.54589,-8.3933 11.04253,-16.822988 16.87973,-25.018695 3.87892,-5.446194 4.74805,-6.526241 8.69509,-11.757943 5.8271,-7.415252 11.97985,-14.570059 18.51711,-21.368914 3.24909,-3.379096 4.97367,-5.001747 8.26666,-8.197748 3.43864,-3.204238 6.78839,-6.516799 10.38182,-9.551354 0.23679,-0.199967 2.81801,-2.283028 3.16718,-2.565067 2.13195,-1.741946 4.27743,-3.466228 6.43361,-5.177825 0,0 5.10677,-2.046918 5.10677,-2.046918 v 0 c -2.20637,1.748785 -4.45836,3.441408 -6.61874,5.24923 -1.09381,0.869431 -2.20732,1.714181 -3.29086,2.596375 -3.78124,3.078598 -7.30161,6.461346 -10.90895,9.736735 -3.65366,3.469893 -4.86052,4.553359 -8.47427,8.259535 -6.59747,6.766208 -12.79729,13.910209 -18.61225,21.359182 -1.44397,1.882492 -2.91145,3.747183 -4.33191,5.647473 -7.49872,10.031754 -14.38634,20.513416 -21.14981,31.048384 -6.29829,10.01118 -0.58934,0.96086 -6.57797,10.38958 -2.6671,4.19918 -5.22555,8.4756 -8.21135,12.46177 -1.54573,2.13756 -3.09955,4.30836 -4.06577,6.783 0,0 -5.06463,2.40545 -5.06463,2.40545 z"
         id="path1021"
         style="opacity:1;fill:#ef2929;stroke:#cc0000;stroke-width:1;stroke-linecap:round;stroke-miterlimit:4;stroke-dasharray:none;stroke-dashoffset:0;stroke-opacity:1" />
      <path
         inkscape:connector-curvature="0"
         d="m 335.87199,25.251589 c 1.67908,2.880875 3.22892,5.837831 5.0091,8.660575 0.89418,1.417862 1.83973,2.802677 2.75959,4.204015 9.56229,14.434018 20.50931,27.886054 31.38272,41.33814 10.31993,12.487021 21.03864,24.669341 32.37096,36.251891 1.96816,2.01162 3.99028,3.96972 5.98542,5.95458 7.03639,6.99869 14.44015,13.60981 21.64744,20.42822 1.26273,1.26106 2.56389,2.50156 3.67056,3.9062 0,0 -4.78111,2.83814 -4.78111,2.83814 v 0 c -1.01291,-1.4168 -2.18966,-2.712 -3.32917,-4.02576 -6.70342,-7.19045 -13.7831,-14.01382 -20.66967,-21.02639 -1.97391,-2.00216 -3.97781,-3.9752 -5.92175,-6.00649 -2.04099,-2.13271 -4.02662,-4.31773 -6.03176,-6.48418 -2.13965,-2.31177 -4.29809,-4.60662 -6.40257,-6.95045 C 384.81512,96.826143 378.36384,89.05059 371.78459,81.391857 363.79926,71.470583 355.74,61.610856 347.90778,51.567818 c -1.58843,-2.036801 -3.20814,-4.049697 -4.76086,-6.113855 -1.22206,-1.624598 -2.37466,-3.300303 -3.562,-4.950454 -1.0026,-1.362416 -2.0383,-2.701088 -3.00781,-4.087249 -1.92384,-2.750611 -3.57962,-5.688831 -5.5818,-8.387967 0,0 4.87668,-2.776704 4.87668,-2.776704 z"
         id="path1023"
         style="opacity:1;fill:#ef2929;stroke:#cc0000;stroke-width:1;stroke-linecap:round;stroke-miterlimit:4;stroke-dasharray:none;stroke-dashoffset:0;stroke-opacity:1" />
    </g>
    <g
       id="g9539">
      <rect
         y="5.9583459"
         x="5.2916679"
         height="47.624992"
         width="63.5"
         id="rect1180"
         style="opacity:1;fill:none;stroke:#000000;stroke-width:1;stroke-linecap:round;stroke-miterlimit:4;stroke-dasharray:none;stroke-dashoffset:0;stroke-opacity:1" />
      <rect
         y="5.9583483"
         x="211.66667"
         height="47.624992"
         width="63.5"
         id="rect1180-2"
         style="opacity:1;fill:none;stroke:#000000;stroke-width:1;stroke-linecap:round;stroke-miterlimit:4;stroke-dasharray:none;stroke-dashoffset:0;stroke-opacity:1" />
      <g
         transform="translate(47.625001,-4.2242838e-6)"
         id="g9507">
        <rect
           style="opacity:1;fill:#fcaf3e;stroke:#f57900;stroke-width:1;stroke-linecap:round;stroke-miterlimit:4;stroke-dasharray:none;stroke-dashoffset:0;stroke-opacity:1"
           id="rect821-7-0"
           width="15.874996"
           height="15.874999"
           x="116.41667"
           y="64.166679"
           ry="0" />
        <rect
           style="opacity:1;fill:#fcaf3e;stroke:#f57900;stroke-width:1;stroke-linecap:round;stroke-miterlimit:4;stroke-dasharray:none;stroke-dashoffset:0;stroke-opacity:1"
           id="rect817-6"
           width="52.916664"
           height="15.875"
           x="100.54167"
           y="11.250006"
           ry="0" />
        <rect
           style="opacity:1;fill:#fcaf3e;stroke:#f57900;stroke-width:1;stroke-linecap:round;stroke-miterlimit:4;stroke-dasharray:none;stroke-dashoffset:0;stroke-opacity:1"
           id="rect819-3"
           width="31.750002"
           height="15.875009"
           x="100.54167"
           y="32.416672"
           ry="0" />
        <rect
           style="opacity:1;fill:#fcaf3e;stroke:#f57900;stroke-width:1;stroke-linecap:round;stroke-miterlimit:4;stroke-dasharray:none;stroke-dashoffset:0;stroke-opacity:1"
           id="rect821-2"
           width="10.583333"
           height="15.874993"
           x="100.54167"
           y="64.166687"
           ry="0" />
        <rect
           style="opacity:1;fill:none;fill-opacity:1;stroke:#f57900;stroke-width:1;stroke-linecap:round;stroke-miterlimit:4;stroke-dasharray:1.00000003, 4.00000011;stroke-dashoffset:0;stroke-opacity:1"
           id="rect823-0"
           width="26.458332"
           height="15.875"
           x="100.54167"
           y="95.916687"
           ry="0" />
        <rect
           style="opacity:1;fill:none;stroke:#000000;stroke-width:1;stroke-linecap:round;stroke-miterlimit:4;stroke-dasharray:none;stroke-dashoffset:0;stroke-opacity:1"
           id="rect1180-0-5"
           width="63.5"
           height="26.458324"
           x="95.25"
           y="90.625023" />
        <rect
           style="opacity:1;fill:none;fill-opacity:1;stroke:#f57900;stroke-width:1;stroke-linecap:round;stroke-miterlimit:4;stroke-dasharray:1.00000003, 4.00000011;stroke-dashoffset:0;stroke-opacity:1"
           id="rect823-97-4"
           width="21.166666"
           height="15.875001"
           x="132.29167"
           y="95.916679"
           ry="0" />
        <rect
           style="opacity:1;fill:#fcaf3e;stroke:#f57900;stroke-width:1;stroke-linecap:round;stroke-miterlimit:4;stroke-dasharray:none;stroke-dashoffset:0;stroke-opacity:1"
           id="rect821-6-7"
           width="15.875001"
           height="15.874993"
           x="137.58333"
           y="64.166687"
           ry="0" />
        <path
           style="opacity:1;fill:#73d216;stroke:#4e9a06;stroke-width:0.67593527;stroke-linecap:round;stroke-miterlimit:4;stroke-dasharray:none;stroke-dashoffset:0;stroke-opacity:1"
           id="path1069-8"
           d="m 105.83333,95.916673 c 1.01197,1.44551 2.07786,2.85351 3.16496,4.243357 0.97934,1.2779 2.01221,2.51287 3.092,3.7067 0.60258,0.69751 1.18386,1.41271 1.76305,2.12973 0.0677,0.0937 0.30894,0.43933 0.40569,0.53309 0.0425,0.0412 0.10066,0.12682 0.15028,0.0946 0.0641,-0.0417 0.11813,-0.25723 0.0491,-0.22422 -1.0448,0.49961 -1.97715,1.22902 -3.05201,1.66017 -0.18402,0.0738 0.16932,-0.35856 0.25399,-0.53784 0.0892,-0.26222 0.18177,-0.52332 0.26764,-0.78665 0.3145,-0.96449 0.36022,-1.25474 0.79064,-2.26159 0.87898,-2.05622 2.04501,-3.93941 3.21951,-5.834517 3.21074,-5.017812 7.23175,-9.45747 11.54959,-13.541626 1.0024,-0.948154 2.0434,-1.854665 3.06509,-2.781994 1.12464,-0.934365 2.23464,-1.886623 3.37391,-2.803096 3.29513,-2.650762 6.59389,-4.948022 10.18073,-7.181704 2.86815,-1.786118 5.27889,-3.10772 8.32584,-4.84797 2.76558,-1.509316 1.45964,-0.800185 3.91682,-2.129189 0,0 -2.70191,2.173618 -2.70191,2.173618 v 0 c -2.34904,1.243518 -1.09854,0.57683 -3.74985,2.003216 0.94933,-0.947878 0.33939,-0.3189 -2.92612,1.686336 -3.57149,2.193113 -6.99235,4.551099 -10.26371,7.173322 -1.12937,0.905267 -2.22627,1.850319 -3.3394,2.775478 -1.02669,0.924707 -2.07437,1.826641 -3.08009,2.774126 -4.25336,4.00712 -8.15799,8.414272 -11.302,13.352173 -0.44819,0.73452 -0.92364,1.45309 -1.34455,2.20357 -1.14233,2.036787 -2.07083,4.186127 -2.60967,6.461277 -0.0588,0.1936 -0.0166,0.45631 -0.17613,0.58081 -1.10883,0.86561 -2.46897,2.84501 -3.66132,2.0986 -0.25632,-0.16046 -0.37475,-0.49616 -0.5681,-0.7124 -0.56527,-0.71745 -1.13464,-1.43095 -1.72049,-2.1317 -1.06352,-1.21296 -2.02766,-2.50701 -3.0215,-3.7767 -1.0884,-1.39638 -2.17828,-2.791147 -3.28711,-4.171367 0,0 3.23512,-1.92757 3.23512,-1.92757 z"
           inkscape:connector-curvature="0" />
        <rect
           style="opacity:1;fill:none;stroke:#000000;stroke-width:1;stroke-linecap:round;stroke-miterlimit:4;stroke-dasharray:none;stroke-dashoffset:0;stroke-opacity:1"
           id="rect1180-8"
           width="63.5"
           height="47.624992"
           x="95.25"
           y="5.9583468" />
        <rect
           style="opacity:1;fill:none;stroke:#000000;stroke-width:1;stroke-linecap:round;stroke-miterlimit:4;stroke-dasharray:none;stroke-dashoffset:0;stroke-opacity:1"
           id="rect1180-6-4"
           width="63.5"
           height="26.458334"
           x="95.25"
           y="58.875008" />
      </g>
      <g
         transform="translate(-103.18749,-1.0991699e-5)"
         id="g9494">
        <rect
           style="opacity:1;fill:#729fcf;stroke:#3465a4;stroke-width:1;stroke-linecap:round;stroke-miterlimit:4;stroke-dasharray:none;stroke-dashoffset:0;stroke-opacity:1"
           id="rect821-7-0-3"
           width="15.874996"
           height="15.874999"
           x="198.4375"
           y="64.166672"
           ry="0" />
        <rect
           style="opacity:1;fill:#ad7fa8;stroke:#75507b;stroke-width:1;stroke-linecap:round;stroke-miterlimit:4;stroke-dasharray:none;stroke-dashoffset:0;stroke-opacity:1"
           id="rect817-6-1"
           width="52.916668"
           height="15.875"
           x="182.5625"
           y="11.250008"
           ry="0" />
        <rect
           style="opacity:1;fill:#ef2929;stroke:#cc0000;stroke-width:1;stroke-linecap:round;stroke-miterlimit:4;stroke-dasharray:none;stroke-dashoffset:0;stroke-opacity:1"
           id="rect819-3-4"
           width="31.750002"
           height="15.87501"
           x="182.5625"
           y="32.416672"
           ry="0" />
        <rect
           style="opacity:1;fill:#babdb6;stroke:#555753;stroke-width:1;stroke-linecap:round;stroke-miterlimit:4;stroke-dasharray:none;stroke-dashoffset:0;stroke-opacity:1"
           id="rect821-2-9"
           width="10.583333"
           height="15.874994"
           x="182.5625"
           y="64.166679"
           ry="0" />
        <rect
           style="opacity:1;fill:#f57900;fill-opacity:1;stroke:#ce5c00;stroke-width:1;stroke-linecap:round;stroke-miterlimit:4;stroke-dasharray:none;stroke-dashoffset:0;stroke-opacity:1"
           id="rect823-0-2"
           width="26.458334"
           height="15.875"
           x="182.5625"
           y="95.916679"
           ry="0" />
        <rect
           style="opacity:1;fill:none;stroke:#000000;stroke-width:1;stroke-linecap:round;stroke-miterlimit:4;stroke-dasharray:none;stroke-dashoffset:0;stroke-opacity:1"
           id="rect1180-0-5-0"
           width="63.5"
           height="26.458324"
           x="177.27083"
           y="90.625015" />
        <rect
           style="opacity:1;fill:#edd400;fill-opacity:1;stroke:#c4a000;stroke-width:1;stroke-linecap:round;stroke-miterlimit:4;stroke-dasharray:none;stroke-dashoffset:0;stroke-opacity:1"
           id="rect823-97-4-6"
           width="21.166666"
           height="15.875001"
           x="214.3125"
           y="95.916672"
           ry="0" />
        <rect
           style="opacity:1;fill:#8ae234;stroke:#73d216;stroke-width:1;stroke-linecap:round;stroke-miterlimit:4;stroke-dasharray:none;stroke-dashoffset:0;stroke-opacity:1"
           id="rect821-6-7-8"
           width="15.875001"
           height="15.874994"
           x="219.60416"
           y="64.166679"
           ry="0" />
        <path
           style="opacity:1;fill:#73d216;stroke:#4e9a06;stroke-width:0.67593533;stroke-linecap:round;stroke-miterlimit:4;stroke-dasharray:none;stroke-dashoffset:0;stroke-opacity:1"
           id="path1069-8-9"
           d="m 187.85418,95.916669 c 1.01197,1.44551 2.07786,2.85351 3.16496,4.243361 0.97934,1.2779 2.01221,2.51287 3.092,3.7067 0.60258,0.69751 1.18386,1.41271 1.76305,2.12973 0.0677,0.0937 0.30894,0.43933 0.40569,0.53309 0.0425,0.0412 0.10066,0.12682 0.15028,0.0946 0.0641,-0.0417 0.11813,-0.25723 0.0491,-0.22422 -1.0448,0.49961 -1.97715,1.22902 -3.05201,1.66017 -0.18402,0.0738 0.16932,-0.35856 0.25399,-0.53784 0.0892,-0.26222 0.18177,-0.52332 0.26764,-0.78665 0.3145,-0.96449 0.36022,-1.25474 0.79064,-2.26159 0.87898,-2.05622 2.04501,-3.93941 3.21951,-5.834521 3.21074,-5.01781 7.23175,-9.45747 11.54959,-13.54163 1.0024,-0.94815 2.0434,-1.85466 3.06509,-2.78199 1.12464,-0.93436 2.23464,-1.88662 3.37391,-2.80309 3.29513,-2.65077 6.59389,-4.948027 10.18073,-7.181709 2.86815,-1.786117 5.27889,-3.107719 8.32584,-4.847968 2.76558,-1.509318 1.45964,-0.800187 3.91682,-2.129189 0,0 -2.70191,2.173618 -2.70191,2.173618 v 0 c -2.34904,1.243518 -1.09854,0.576829 -3.74985,2.003216 0.94933,-0.947878 0.33939,-0.3189 -2.92612,1.686335 -3.57149,2.193113 -6.99235,4.551098 -10.26371,7.173317 -1.12937,0.90527 -2.22627,1.85032 -3.3394,2.77548 -1.02669,0.92471 -2.07437,1.82664 -3.08009,2.77413 -4.25336,4.00712 -8.15799,8.41427 -11.302,13.35217 -0.44819,0.73452 -0.92364,1.45309 -1.34455,2.20357 -1.14233,2.036791 -2.07083,4.186131 -2.60967,6.461281 -0.0588,0.1936 -0.0166,0.45631 -0.17613,0.58081 -1.10883,0.86561 -2.46897,2.84501 -3.66132,2.0986 -0.25632,-0.16046 -0.37475,-0.49616 -0.5681,-0.7124 -0.56527,-0.71745 -1.13464,-1.43095 -1.72049,-2.1317 -1.06352,-1.21296 -2.02766,-2.50701 -3.0215,-3.7767 -1.0884,-1.39638 -2.17828,-2.791151 -3.28711,-4.171371 0,0 3.23512,-1.92757 3.23512,-1.92757 z"
           inkscape:connector-curvature="0" />
        <rect
           style="opacity:1;fill:none;stroke:#000000;stroke-width:1;stroke-linecap:round;stroke-miterlimit:4;stroke-dasharray:none;stroke-dashoffset:0;stroke-opacity:1"
           id="rect1180-8-2"
           width="63.5"
           height="47.624992"
           x="177.27083"
           y="5.9583445" />
        <rect
           style="opacity:1;fill:none;stroke:#000000;stroke-width:1;stroke-linecap:round;stroke-miterlimit:4;stroke-dasharray:none;stroke-dashoffset:0;stroke-opacity:1"
           id="rect1180-6-4-6"
           width="63.5"
           height="26.458334"
           x="177.27083"
           y="58.875008" />
      </g>
    </g>
  </g>
</svg>
